# xmcd
#
# Track frame offsets:
#	150
#	24515
#	52715
#	73915
#	104020
#	127312
#	163360
#	183027
#	208717
#	238245
#	264297
#	290887
#
# Disc length: 4316 seconds
#
# Revision: 2
# Processed by: cddbd v1.5.2PL0 Copyright (c) Steve Scherf et al.
# Submitted via: EZCDAudioConverter 3.1.0.1
#
DISCID=bc10da0c
DTITLE=陳昇 - 魔鬼的情詩
DYEAR=1998
DGENRE=Pop/Rock
TTITLE0=20歲的眼淚\
TTITLE1=鏡子
TTITLE2=風箏
TTITLE3=SUMMER
TTITLE4=冰點
TTITLE5=關於男人
TTITLE6=恨情歌
TTITLE7=路口
TTITLE8=流星小夜曲
TTITLE9=旅程
TTITLE10=六月
TTITLE11=明年你還愛我嗎
EXTD=
EXTT0=
EXTT1=
EXTT2=
EXTT3=
EXTT4=
EXTT5=
EXTT6=
EXTT7=
EXTT8=
EXTT9=
EXTT10=
EXTT11=
PLAYORDER=
